# xmcd
#
# Track frame offsets:
#       150
#       17975
#       29700
#       38750
#       60875
#       76747
#       89687
#       105400
#       119362
#       131955
#       150200
#       164525
#       182750
#       202795
#       213745
#       229837
#       246792
#       265437
#       281600
#       296325
#       313677
#
# Disc length: 4299 seconds
#
# Revision: 0
# Processed by: cddbd v1.4PL0 Copyright (c) Steve Scherf et al.
# Submitted via: WhereIsIt 3.25
#
DISCID=2710c915
DTITLE=Various Artist - Country Downunder
DYEAR=1900
DGENRE=
TTITLE0=I'd Like To Spend Christmas At Home (David Pincombe)
TTITLE1=That Is As Far As It Goes (Desree-Ilona Crawford)
TTITLE2=I Hope Your Chooks Turn Into Emus And Peck Your Dunny Down (Frankie Da
TTITLE2=vidson)
TTITLE3=Ride On Little Cowboy (Anne Conway)
TTITLE4=Wher'm I Gonna Live When I Get Home (Chris Bentley)
TTITLE5=Who's The Someone? (Olive Bice)
TTITLE6=City Kind Of Girl (Steve Virtue)
TTITLE7=All The Way (Andrea Bice)
TTITLE8=Lodi (Stuart McLeod)
TTITLE9=An Outback Woman's Lot (Pam Clarke)
TTITLE10=Dianne (Hec Griffiths)
TTITLE11=Baby I Lied (Karen Hewitt)
TTITLE12=The Eighth Wonder (Neil Goudge)
TTITLE13=If You Wanna Stay (Anne Conway)
TTITLE14=Freckles (Ken Oliver)
TTITLE15=Faded Love (Olive Bice)
TTITLE16=Living Next Door To Alice (Steve Virtue)
TTITLE17=I Run Alone (Margaret Stephan)
TTITLE18=Until That Time (Gary Hayward)
TTITLE19=Love Don't You Leave Me Now (Neil Goudge)
TTITLE20=Fooling Around (Anne Conway and Olive Bice)
EXTD=
EXTT0=
EXTT1=
EXTT2=
EXTT3=
EXTT4=
EXTT5=
EXTT6=
EXTT7=
EXTT8=
EXTT9=
EXTT10=
EXTT11=
EXTT12=
EXTT13=
EXTT14=
EXTT15=
EXTT16=
EXTT17=
EXTT18=
EXTT19=
EXTT20=
PLAYORDER=
